# xmcd
#
# Track frame offsets: 
#        150
#        13587
#        28441
#        39754
#        52558
#        62689
#        75278
#        90806
#        101722
#        110219
#        126628
#        136166
#        151120
#        169227
#        177208
#        189279
#        204816
#        220536
#        236216
#        243099
#        253735
#        272526
#        281821
#        299851
#
# Disc length: 4214 seconds
#
# Revision: 0
# Processed by: cddbd v1.5.2PL0 Copyright (c) Steve Scherf et al.
# Submitted via: ExactAudioCopy v0.99pb5
#
DISCID=48107418
DTITLE=Various Artist - Ты знаешь Am?
DYEAR=1900
DGENRE=Vocal
TTITLE0=А. Решетников, В. Городецкий, Я. Стахеева - Последняя поэма
TTITLE1=А. Решетников, В. Городецкий - Другу менестрелю
TTITLE2=А. Решетников, В. Городецкий, Я. Стахеева - Горным эхом
TTITLE3=А. Решетников, Я. Стахеева - Костры прополощут
TTITLE4=А. Решетников, В. Городецкий, Я. Стахеева - Паучок
TTITLE5=Р. Соловьев - Я за летом вслед
TTITLE6=А. Решетников, В. Городецкий, Я. Стахеева - В горнице
TTITLE7=А. Решетников, В. Городецкий, Я. Стахеева - Фургон
TTITLE8=А. Решетников, Я. Стахеева - Восковая свирель
TTITLE9=А. Решетников, В. Городецкий, Я. Стахеева - Ветер перемен
TTITLE10=В. Городецкий - Феминистское танго
TTITLE11=А. Решетников, В. Городецкий - Bonus-Track
TTITLE12=А. Решетников, В. Городецкий, Д. Мыльников, П. Орлов - Арго
TTITLE13=А. Решетников, Я. Стахеева - Улицы
TTITLE14=Ю. Мошкина - Ночные трубы
TTITLE15=А. Решетников, В. Городецкий, Я. Стахеева - Таверна
TTITLE16=А. Решетников, В. Городецкий - Запомни, сынок
TTITLE17=А. Решетников, В. Городецкий, Д. Мыльников, П. Орлов - Конь
TTITLE18=А. Решетников, В. Городецкий, Я. Стахеева, Д. Мыльников, П. О
TTITLE18=рлов - Звездная сирень
TTITLE19=В. Титова - Несмеяна
TTITLE20=А. Решетников, В. Городецкий, Р. Соловьев - Внеплановый конце
TTITLE20=рт
TTITLE21=А. Решетников, В. Городецкий, Я. Стахеева - Сон
TTITLE22=А. Решетников, В. Городецкий, Я. Стахеева - Новый день
TTITLE23=А. Решетников, В. Городецкий, Я. Стахеева, Ю. Мошкина, Д. Мыл
TTITLE23=ьников, П. Орлов - Аллилуйя
EXTD=
EXTT0=
EXTT1=
EXTT2=
EXTT3=
EXTT4=
EXTT5=
EXTT6=
EXTT7=
EXTT8=
EXTT9=
EXTT10=
EXTT11=
EXTT12=
EXTT13=
EXTT14=
EXTT15=
EXTT16=
EXTT17=
EXTT18=
EXTT19=
EXTT20=
EXTT21=
EXTT22=
EXTT23=
PLAYORDER=
